<svg class="nav-block__social-icon" xmlns="http://www.w3.org/2000/svg" viewBox="0 0 25 25"><title>Icon Instagram</title><path d="M12.5,1.5c-3,0-3.36,0-4.54.07a8.07,8.07,0,0,0-2.67.51A5.62,5.62,0,0,0,2.08,5.29,8.07,8.07,0,0,0,1.57,8C1.51,9.14,1.5,9.51,1.5,12.5s0,3.36.07,4.54a8.07,8.07,0,0,0,.51,2.67,5.62,5.62,0,0,0,3.22,3.22A8.07,8.07,0,0,0,8,23.43c1.17.05,1.55.07,4.54.07s3.36,0,4.54-.07a8.07,8.07,0,0,0,2.67-.51,5.62,5.62,0,0,0,3.22-3.22A8.07,8.07,0,0,0,23.43,17c.05-1.17.07-1.55.07-4.54s0-3.36-.07-4.54a8.07,8.07,0,0,0-.51-2.67,5.62,5.62,0,0,0-3.22-3.22A8.07,8.07,0,0,0,17,1.57c-1.17-.05-1.55-.07-4.54-.07m0,2c2.94,0,3.29,0,4.44.06a6.09,6.09,0,0,1,2,.38A3.64,3.64,0,0,1,21.08,6a6.09,6.09,0,0,1,.38,2c.05,1.16.06,1.51.06,4.44s0,3.29-.06,4.44a6.09,6.09,0,0,1-.38,2A3.64,3.64,0,0,1,19,21.08a6.09,6.09,0,0,1-2,.38c-1.16.05-1.51.06-4.44.06s-3.29,0-4.44-.06a6.09,6.09,0,0,1-2-.38A3.64,3.64,0,0,1,3.92,19a6.09,6.09,0,0,1-.38-2c-.05-1.16-.06-1.51-.06-4.44s0-3.29.06-4.44a6.09,6.09,0,0,1,.38-2A3.64,3.64,0,0,1,6,3.92a6.09,6.09,0,0,1,2-.38c1.16-.05,1.51-.06,4.44-.06M12.5,16A3.48,3.48,0,1,1,16,12.5,3.48,3.48,0,0,1,12.5,16Zm0-8.83a5.35,5.35,0,1,0,5.35,5.35A5.35,5.35,0,0,0,12.5,7.15Zm6.82-.21a1.25,1.25,0,1,1-1.25-1.25,1.25,1.25,0,0,1,1.25,1.25"></path></svg>