<?xml version="1.0" encoding="UTF-8"?>
<svg width="24px" height="24px" viewBox="0 0 24 24" version="1.1" xmlns="http://www.w3.org/2000/svg" fill="currentColor">

    <g transform="translate(3.000000, 4.000000)">
        <path d="M4.77642323,1.50842028 C7.4915797,1.50842028 9,4.97778691 9,4.97778691 C9,4.97778691 10.5084203,1.50842028 13.2235768,1.50842028 C13.5311871,1.51226171 13.8364003,1.56313057 14.1286289,1.6592623 C14.8961958,1.92372809 15.5401893,2.46038929 15.9387333,3.16768258 C16.7514875,4.74164803 16.6944586,6.6236047 15.7878912,8.1454695 C13.9424129,10.7476866 11.6430263,12.9959757 9,14.7825187 C6.35905278,12.9934283 4.06008709,10.7455508 2.21210876,8.1454695 C1.36003816,6.6623148 1.30346545,4.85198782 2.06126673,3.31852461 C2.45981072,2.61123131 3.10380416,2.07457012 3.87137106,1.81010433 C4.15514487,1.66217712 4.46064786,1.56034279 4.77642323,1.50842028 L4.77642323,1.50842028 Z M13.2235768,0 C11.5139619,0.09365621 9.9486467,0.98812202 9,2.41347244 C8.0513533,0.98812202 6.48603809,0.09365621 4.77642323,0 C4.26008387,0.01373738 3.74990751,0.11577265 3.26800295,0.30168406 C2.16574792,0.71767701 1.25368991,1.52243408 0.70368849,2.56431447 C-0.33242235,4.63133516 -0.21813099,7.0885993 1.00537254,9.0505217 C3.26800295,12.8215723 9,16.592623 9,16.592623 C9,16.592623 14.731997,12.8215723 16.9946275,9.0505217 C18.218131,7.0885993 18.3324223,4.63133516 17.2963115,2.56431447 C16.7098567,1.49396675 15.7397102,0.68551131 14.581155,0.30168406 C14.0992505,0.11577265 13.5890741,0.01373738 13.0727347,0 L13.2235768,0 Z"></path>
    </g>
</svg>
