<?xml version="1.0" encoding="UTF-8"?>
<svg width="24px" height="24px" viewBox="0 0 24 24" version="1.1" xmlns="http://www.w3.org/2000/svg" fill="currentColor">
    <path d="M10.4150952,15.2254763 L10.4150952,21 L3,21 L3,9.42904348 L11.4751983,3.41347405 C11.8236645,3.16613792 12.2907879,3.16755523 12.6377468,3.41700136 L21,9.42904348 L21,21 L13.4940306,21 L13.4940306,15.2254763 C13.4940306,15.1702478 13.449259,15.1254763 13.3940306,15.1254763 L10.5150952,15.1254763 C10.4598667,15.1254763 10.4150952,15.1702478 10.4150952,15.2254763 Z M8.91509516,15.2254763 C8.91509516,14.3418207 9.63143956,13.6254763 10.5150952,13.6254763 L13.3940306,13.6254763 C14.2776862,13.6254763 14.9940306,14.3418207 14.9940306,15.2254763 L14.9940306,19.5 L19.5,19.5 L19.5,10.1980492 L12.0521393,4.84340963 L4.5,10.2038056 L4.5,19.5 L8.91509516,19.5 L8.91509516,15.2254763 Z"></path>
</svg>
