<svg xmlns="http://www.w3.org/2000/svg" width="512" height="512.05" viewBox="0 0 512 512.05"><title>messenger</title><path d="M256,.05C117.64-2.68,3.16,107,0,245.38A240.7,240.7,0,0,0,85.33,428v73.38a10.67,10.67,0,0,0,16.32,9.05l59.46-37.14A264.38,264.38,0,0,0,256,490.72c138.35,2.72,252.84-107,256-245.34C508.84,107,394.35-2.68,256,.05ZM423.6,188.91l-128,128a10.67,10.67,0,0,1-14.49.56L212,258.27,101.1,318.75a10.67,10.67,0,0,1-12.65-16.9l128-128a10.66,10.66,0,0,1,14.48-.55l69,59.18L410.88,172a10.7,10.7,0,0,1,12.72,16.91Z"/></svg>