<svg xmlns="http://www.w3.org/2000/svg" width="670.1" height="178.63" viewBox="0 0 670.1 178.63"><defs><style>.a{fill:#003087;}.b{fill:#009cde;}</style></defs><title>paypal</title><path class="a" d="M113.43,8.67Q100.83,0,80.55,0H28.2Q22,0,21.33,6.21L.07,139.7a4.36,4.36,0,0,0,1,3.6,4,4,0,0,0,3.27,1.63H29.18c4.36,0,6.76-2.06,7.2-6.21l5.89-36a6.32,6.32,0,0,1,2.29-4.25,10.11,10.11,0,0,1,4.91-2.13A33.49,33.49,0,0,1,55,95.86q2.61,0,6.22.33c2.39.22,3.92.32,4.58.32Q94,96.51,110,80.65t16-44Q126,17.35,113.43,8.67Zm-27,40.08q-1.65,11.45-8.51,15T58.3,67.4l-10.79.32,5.56-35a3.91,3.91,0,0,1,4.25-3.59h6.22q13.08,0,19,3.76T86.44,48.75Z"/><path class="b" d="M665.84,0H641.63a3.91,3.91,0,0,0-4.25,3.6L616.11,139.7l-.32.65a4.58,4.58,0,0,0,1.31,3.11,4.19,4.19,0,0,0,3.27,1.47H642c4.14,0,6.43-2.06,6.87-6.21L670.1,4.91V4.58Q670.1,0,665.84,0Z"/><path class="a" d="M373.36,52.67a4.6,4.6,0,0,0-1.31-3.1,3.86,3.86,0,0,0-2.94-1.48H343.92A6.93,6.93,0,0,0,338,51.36l-34.68,51L289,53.33a6.87,6.87,0,0,0-7.19-5.24H257.21a3.85,3.85,0,0,0-2.94,1.48,4.6,4.6,0,0,0-1.31,3.1q0,.66,6.38,19.3t13.74,40.25q7.37,21.59,7.69,22.9Q254,171.77,254,174.38c0,2.83,1.41,4.25,4.25,4.25h25.19a6.93,6.93,0,0,0,5.89-3.27L372.71,55A3.2,3.2,0,0,0,373.36,52.67Z"/><path class="b" d="M607.94,48.09H583.07c-3.06,0-4.9,3.6-5.56,10.8Q569,45.81,546.43,45.8q-23.56,0-40.08,17.67T489.83,105q0,19.31,11.29,30.75t30.26,11.45a51.86,51.86,0,0,0,19.3-3.92q9.83-3.93,15.38-10.47a27.88,27.88,0,0,1-.65,2.94,17.85,17.85,0,0,0-.66,3.93c0,3.49,1.41,5.23,4.25,5.23h22.58q6.21,0,7.19-6.21l13.42-85.39a4.42,4.42,0,0,0-1-3.6A4.05,4.05,0,0,0,607.94,48.09Zm-42.7,64.45a27.67,27.67,0,0,1-20.12,8.18q-9.5,0-15.38-5.23t-5.89-14.4A28.1,28.1,0,0,1,532,80.65a27.25,27.25,0,0,1,20.29-8.35q9.15,0,15.21,5.4t6.06,14.89A26.92,26.92,0,0,1,565.24,112.54Z"/><path class="a" d="M236.28,48.09H211.41q-4.57,0-5.56,10.8Q197,45.81,174.77,45.8q-23.55,0-40.08,17.67T118.17,105q0,19.31,11.29,30.75t30.26,11.45a51.14,51.14,0,0,0,19-3.92,41.44,41.44,0,0,0,15.7-10.47,22.28,22.28,0,0,0-1.31,6.87q0,5.24,4.25,5.23h22.58q6.21,0,7.2-6.21l13.41-85.39a4.42,4.42,0,0,0-1-3.6A4,4,0,0,0,236.28,48.09Zm-42.7,64.62a28.36,28.36,0,0,1-20.44,8q-9.49,0-15.22-5.23t-5.72-14.4a28.06,28.06,0,0,1,8.18-20.44,27.23,27.23,0,0,1,20.28-8.35q9.15,0,15.21,5.4t6.06,14.89A26.71,26.71,0,0,1,193.58,112.71Z"/><path class="b" d="M485.08,8.67Q472.5,0,452.21,0h-52q-6.56,0-7.2,6.21L371.72,139.7a4.39,4.39,0,0,0,1,3.6,4,4,0,0,0,3.28,1.63H402.8c2.62,0,4.36-1.41,5.24-4.25l5.89-37.95a6.32,6.32,0,0,1,2.29-4.25,10,10,0,0,1,4.9-2.13,33.7,33.7,0,0,1,5.57-.49q2.61,0,6.21.33c2.4.22,3.93.32,4.58.32q28.14,0,44.17-15.86t16-44Q497.68,17.35,485.08,8.67ZM451.55,62.49q-7.2,4.91-21.59,4.9l-10.47.33,5.56-35a3.91,3.91,0,0,1,4.25-3.59h5.89a79.94,79.94,0,0,1,11.45.65,16.15,16.15,0,0,1,8.18,4.09q3.93,3.44,3.93,10Q458.75,57.58,451.55,62.49Z"/></svg>