<?xml version="1.0" encoding="UTF-8"?>
<svg width="24px" height="24px" viewBox="0 0 24 24" version="1.1" xmlns="http://www.w3.org/2000/svg" xmlns:xlink="http://www.w3.org/1999/xlink" fill="currentColor">

    <g transform="translate(3.000000, 3.000000)"  id="Shape">
        <path d="M10.1399747,0 C5.80557731,0 2.27994941,3.5256279 2.27994941,7.8600253 C2.27994941,9.6597001 2.90441486,11.4051677 4.0438475,12.8058785 L0,16.849726 L1.14918991,17.9989159 L5.1930374,13.9550684 C6.59700054,15.0966693 8.3435524,15.7200506 10.1399747,15.7200506 C14.4743721,15.7200506 18,12.1944227 18,7.8600253 C18,3.5256279 14.4743721,0 10.1399747,0 Z M10.1399747,14.0938385 C6.7032464,14.0938385 3.90616154,11.2967536 3.90616154,7.8600253 C3.90616154,4.42329699 6.7032464,1.62621213 10.1399747,1.62621213 C13.576703,1.62621213 16.3737879,4.42329699 16.3737879,7.8600253 C16.3737879,11.2967536 13.576703,14.0938385 10.1399747,14.0938385 Z" transform="translate(9.000000, 8.999458) scale(-1, 1) translate(-9.000000, -8.999458) "></path>
    </g>
</svg>
