<?xml version="1.0" encoding="UTF-8"?>
<svg width="24px" height="24px" viewBox="0 0 24 24" version="1.1" xmlns="http://www.w3.org/2000/svg" xmlns:xlink="http://www.w3.org/1999/xlink">
    <!-- Generator: Sketch 54.1 (76490) - https://sketchapp.com -->

        <path d="M12,10.1818182 C14.2538182,10.1818182 16.0909091,8.34690909 16.0909091,6.09090909 C16.0909091,3.83490909 14.2538182,2 12,2 C9.74509091,2 7.90909091,3.83490909 7.90909091,6.09090909 C7.90909091,8.34690909 9.74509091,10.1818182 12,10.1818182 Z M12,3.63636364 C13.3527273,3.63636364 14.4545455,4.73818182 14.4545455,6.09090909 C14.4545455,7.44363636 13.3527273,8.54545455 12,8.54545455 C10.6472727,8.54545455 9.54545455,7.44363636 9.54545455,6.09090909 C9.54545455,4.73818182 10.6472727,3.63636364 12,3.63636364 Z M12,11.8181818 C7.03636364,11.8181818 3,15.8545455 3,20.8181818 L3,21.0909091 L4.63636364,21.0909091 L4.63636364,20.8181818 C4.63636364,16.7545455 7.93963636,13.4512727 12,13.4512727 C16.0614545,13.4512727 19.3636364,16.7545455 19.3636364,20.8181818 L19.3636364,21.0909091 L21,21.0909091 L21,20.8181818 C21,15.8545455 16.9636364,11.8181818 12,11.8181818 Z" id="Shape" fill="#000000" fill-rule="nonzero"></path>
</svg>
