<?xml version="1.0" encoding="UTF-8"?>
<svg width="24px" height="24px" viewBox="0 0 24 24" version="1.1" xmlns="http://www.w3.org/2000/svg" fill="currentColor">

        <path d="M15.8443247,8.17733341 L15.8443247,7.88649516 C15.8432934,4.28298859 13.8558987,3 11.9994843,3 C10.14307,3 8.15670659,4.28298859 8.15670659,7.88649516 L8.15670659,8.17527073 L3,8.17527073 L3,20.7473214 L21,20.7473214 L21,8.17527073 L15.8443247,8.17733341 Z M11.9994843,4.59135965 C13.4361428,4.59135965 14.2601845,5.79184094 14.2601845,7.88649516 L14.2601845,8.17527073 L9.74084685,8.17527073 L9.74084685,7.88649516 C9.74084685,5.79287228 10.5659199,4.59135965 11.9994843,4.59135965 Z M4.69965049,9.72228271 L8.15773793,9.72228271 L8.15773793,10.977425 L9.73981551,10.977425 L9.73981551,9.72434539 L14.2601845,9.72434539 L14.2601845,10.977425 L15.8422621,10.977425 L15.8422621,9.72434539 L19.3013809,9.72434539 L19.3013809,19.199278 L4.69965049,19.199278 L4.69965049,9.72228271 Z"></path>
</svg>
