<?xml version="1.0" encoding="UTF-8"?>
<svg width="24px" height="24px" viewBox="0 0 24 24" version="1.1" xmlns="http://www.w3.org/2000/svg" xmlns:xlink="http://www.w3.org/1999/xlink">

    <g id="heart_fill" stroke="none" stroke-width="1" fill="none" fill-rule="evenodd">
        <g id="heart" transform="translate(3.000000, 4.000000)" fill="#000000" fill-rule="nonzero">
            <path d="M13.2235768,0 C11.5139619,0.09365621 9.9486467,0.98812202 9,2.41347244 C8.0513533,0.98812202 6.48603809,0.09365621 4.77642323,0 C4.26008387,0.01373738 3.74990751,0.11577265 3.26800295,0.30168406 C2.16574792,0.71767701 1.25368991,1.52243408 0.70368849,2.56431447 C-0.33242235,4.63133516 -0.21813099,7.0885993 1.00537254,9.0505217 C3.26800295,12.8215723 9,16.592623 9,16.592623 C9,16.592623 14.731997,12.8215723 16.9946275,9.0505217 C18.218131,7.0885993 18.3324223,4.63133516 17.2963115,2.56431447 C16.7098567,1.49396675 15.7397102,0.68551131 14.581155,0.30168406 C14.0992505,0.11577265 13.5890741,0.01373738 13.0727347,0 L13.2235768,0 Z" id="Shape"></path>
        </g>
    </g>
</svg>
