<svg class="nav-block__social-icon" xmlns="http://www.w3.org/2000/svg" viewBox="0 0 25 25"><title>Icon Pinterest</title><path d="M14.15,19A4.1,4.1,0,0,1,11,17.62L9.48,22.45l-.15.3A1.58,1.58,0,0,1,8,23.5a1.67,1.67,0,0,1-1.66-1.66v-.15l.15-.3L9.18,13a7.83,7.83,0,0,1-.3-2.26c0-2.56,1.36-3.32,2.56-3.32a1.85,1.85,0,0,1,2.11,2c0,2-1.36,3-1.36,4.52a2,2,0,0,0,2,2c3.47,0,4.82-2.71,4.82-5.12a6.21,6.21,0,0,0-6.33-6,6.21,6.21,0,0,0-6.33,6,6.23,6.23,0,0,0,.75,2.86,1.36,1.36,0,0,1,.15.75,1.42,1.42,0,0,1-1.51,1.51,1.58,1.58,0,0,1-1.36-.75,9.21,9.21,0,0,1-1.21-4.52,9.23,9.23,0,0,1,9.34-9,9.23,9.23,0,0,1,9.34,9C22,14.76,19.58,19,14.15,19Z"></path></svg>