<svg class="nav-block__social-icon" xmlns="http://www.w3.org/2000/svg" viewBox="0 0 25 25"><title>Icon Twitter</title><path d="M22.44,7.47c-.19,8.63-5.62,14.63-13.87,15A13.65,13.65,0,0,1,.5,20.22a10,10,0,0,0,7.31-2.06A5.07,5.07,0,0,1,3.13,14.6a7.56,7.56,0,0,0,2.06,0A5.11,5.11,0,0,1,1.25,9.54a3.78,3.78,0,0,0,2.06.56C1.63,9.16.5,5.6,1.81,3.35A14.86,14.86,0,0,0,12.13,8.6C10.81,3.35,17.94.54,20.75,4.1A12.63,12.63,0,0,0,23.94,3a5.3,5.3,0,0,1-2.06,2.81A10.75,10.75,0,0,0,24.5,5C24.31,6,23.38,6.72,22.44,7.47Z"></path></svg>