<svg xmlns="http://www.w3.org/2000/svg" width="18" height="18" viewBox="0 0 18 18"><title>heart</title><path d="M0,0H18V18H0Z" fill="none"/><path d="M12.38,2.25A4.5,4.5,0,0,0,9,3.82,4.5,4.5,0,0,0,5.63,2.25,4.09,4.09,0,0,0,1.5,6.38c0,2.83,2.55,5.14,6.41,8.65L9,16l1.09-1C14,11.52,16.5,9.21,16.5,6.38A4.09,4.09,0,0,0,12.38,2.25ZM9.08,13.91,9,14l-.08-.08C5.35,10.68,3,8.54,3,6.38A2.57,2.57,0,0,1,5.63,3.75,2.93,2.93,0,0,1,8.3,5.52H9.7a2.93,2.93,0,0,1,2.68-1.77A2.56,2.56,0,0,1,15,6.38C15,8.54,12.65,10.68,9.08,13.91Z"/></svg>