<svg xmlns="http://www.w3.org/2000/svg" viewBox="0 0 1133.9 364.8"><title>logo_cos</title><path d="M606.2,38.9c69.5,0,126.7,51.8,134.5,120.5a145.48,145.48,0,0,0,.9-17.5c0-76.5-60.8-136.5-135.4-136.5s-135.4,60-135.4,136.5a141.13,141.13,0,0,0,.9,17.3C479.7,90.7,536.9,38.9,606.2,38.9Z" fill="#444"/><path d="M1079.2,242.4a62,62,0,0,0,2.6-18.4c0-78-176.6-51.5-193.7-155.9a94.45,94.45,0,0,0-1.3,16.3C886.8,200.8,1056.5,179.1,1079.2,242.4Z" fill="#444"/><path d="M.7,158.3c-.5,5.9-.7,11.5-.7,17.6C0,287.5,86.7,364.8,193.2,364.8c41.6,0,80.2-9.3,124.8-30.1V301.3c-44.6,20.8-83.2,30.1-124.8,30.1C91.9,331.4,8.5,261.3.7,158.3Z" fill="#444"/><path d="M1005.6,33.5c36.6,0,65.6,14.3,84.5,33.2L1125.8,34a111.7,111.7,0,0,0-18-17.1l-17.7,16.3C1071.2,14.3,1042.2,0,1005.6,0c-37.2,0-66.9,17.7-66.9,50.9a40,40,0,0,0,3.2,16C950.4,45,975.7,33.5,1005.6,33.5Z" fill="#444"/><path d="M53.5,142.4a156.14,156.14,0,0,0,1,17.2C62.3,84.6,123,37.8,193.2,37.8c41.6,0,83.2,11.6,124.8,38.3V42.7C276.4,15.9,234.8,4.4,193.2,4.4,116.8,4.4,53.5,59.6,53.5,142.4Z" fill="#444"/><path d="M1132.6,239.6c-8.5,54.5-61.8,91.7-125.9,91.7-42.1,0-81.3-11.9-111.4-38.1l-18.4,14.5c31.4,39,78.7,57,129.8,57,70,0,127.2-44.3,127.2-107.3A112,112,0,0,0,1132.6,239.6Z" fill="#444"/><path d="M605.8,331.2a188.6,188.6,0,0,1-188-172.4c-.5,5.8-.7,11.2-.7,17.1,0,104.2,84.5,188.7,188.7,188.7s188.9-84.5,188.9-188.7c0-5.6-.2-11.3-.7-16.9C785.6,255.4,704.4,331.2,605.8,331.2Z" fill="#444"/></svg>